<svg viewBox="0 0 120 140" xmlns="http://www.w3.org/2000/svg">
  <!-- Contour noir -->
  <circle cx="60" cy="78" r="56" fill="#2D2D2A"/>
  <!-- Cercle orange -->
  <circle cx="60" cy="78" r="52" fill="#F37021"/>
  <!-- Reflet -->
  <ellipse cx="42" cy="56" rx="28" ry="22" fill="#FF8C42" opacity="0.4"/>
  
  <!-- Yeux -->
  <ellipse cx="42" cy="60" rx="6" ry="8" fill="#2D2D2A"/>
  <ellipse cx="78" cy="60" rx="6" ry="8" fill="#2D2D2A"/>
  
  <!-- GRANDE BOUCHE -->
  <path d="M28,78 Q60,123 92,78" fill="#2D2D2A"/>
  <path d="M32,80 Q60,118 88,80" fill="#DC2626"/>
  <rect x="32" y="78" width="56" height="8" rx="2" fill="white"/>
  
  <!-- CASQUE JAUNE -->
  <path d="M10,42 C8,14 28,-4 60,-6 C92,-4 112,14 110,42 Z" fill="#FCD34D"/>
  <path d="M32,8 C48,-4 72,-4 88,8 C72,0 48,0 32,8 Z" fill="#FDE68A" opacity="0.7"/>
  <line x1="60" y1="-4" x2="60" y2="40" stroke="#D97706" stroke-width="3" opacity="0.2"/>
  <path d="M6,42 L2,50 C10,58 30,62 60,62 C90,62 110,58 118,50 L114,42 Z" fill="#D97706"/>
  <rect x="16" y="32" width="88" height="8" rx="4" fill="#F37021"/>
  <rect x="16" y="32" width="88" height="4" rx="2" fill="#FF8C42" opacity="0.5"/>
</svg>
